<?xml version="1.0" standalone="no"?>
<!DOCTYPE svg PUBLIC "-//W3C//DTD SVG 20010904//EN"
 "http://www.w3.org/TR/2001/REC-SVG-20010904/DTD/svg10.dtd">
<svg version="1.0" xmlns="http://www.w3.org/2000/svg"
 width="700.000000pt" height="700.000000pt" viewBox="0 0 700.000000 700.000000"
 preserveAspectRatio="xMidYMid meet">
<metadata>
Created by potrace 1.11, written by Peter Selinger 2001-2013
</metadata>
<g transform="translate(0.000000,700.000000) scale(0.100000,-0.100000)"
fill="#000000" stroke="none">
<path d="M1231 5518 c-116 -20 -252 -121 -305 -226 -51 -101 -52 -114 -52
-867 l1 -700 673 0 673 0 53 135 c29 74 92 236 140 360 49 124 96 243 106 265
71 157 291 171 383 25 9 -14 109 -304 222 -645 113 -341 208 -627 211 -635 3
-8 29 42 60 115 30 72 59 139 64 150 10 22 132 314 186 445 20 47 39 94 44
105 36 80 90 210 91 219 0 6 15 31 33 56 80 110 237 125 330 32 17 -16 99
-164 182 -328 l153 -299 158 -1 c187 0 237 -11 288 -63 46 -45 66 -92 67 -156
1 -101 -72 -193 -167 -211 -51 -10 -455 -11 -517 -2 -47 7 -97 35 -129 73 -10
11 -50 84 -90 163 -65 127 -89 163 -89 132 0 -5 -112 -276 -249 -602 -265
-628 -261 -620 -345 -665 -43 -22 -133 -20 -182 5 -87 44 -85 39 -310 716
-115 344 -211 626 -214 626 -3 0 -32 -71 -65 -157 -72 -188 -102 -238 -168
-272 l-48 -24 -762 0 c-419 0 -767 -3 -772 -8 -16 -12 -12 -1421 4 -1479 43
-149 160 -267 311 -311 68 -20 4498 -22 4584 -2 166 38 306 185 333 348 5 28
8 786 8 1685 -1 1775 2 1669 -54 1778 -29 58 -118 145 -177 175 -107 54 31 51
-2379 52 -1232 1 -2260 -2 -2284 -7z"/>
</g>
</svg>
